<svg version="1.1" xmlns="http://www.w3.org/2000/svg" viewBox="0 0 381.28907234817746 381.54211578988475" width="381.28907234817746" height="381.54211578988475">
  <!-- svg-source:excalidraw -->
  
  <defs>
    <style class="style-fonts">
      @font-face {
        font-family: "Virgil";
        src: url("https://excalidraw.com/Virgil.woff2");
      }
      @font-face {
        font-family: "Cascadia";
        src: url("https://excalidraw.com/Cascadia.woff2");
      }
      @font-face {
        font-family: "Assistant";
        src: url("https://excalidraw.com/Assistant-Regular.woff2");
      }
    </style>
    
  </defs>
  <rect x="0" y="0" width="381.28907234817746" height="381.54211578988475" fill="#ffffff"></rect><g stroke-linecap="round" transform="translate(70 70) rotate(0 150 150)"><path d="M0 0 C108.73 -2.55, 218.37 -3.04, 300 0 M0 0 C94.99 -2.57, 189.07 -1.41, 300 0 M300 0 C301.36 62.36, 301.95 126.06, 300 300 M300 0 C299.75 106.58, 299.54 213.59, 300 300 M300 300 C185.91 299.73, 74.78 297.93, 0 300 M300 300 C229.54 298.69, 157.28 298.5, 0 300 M0 300 C-1.52 227.71, -0.13 155.75, 0 0 M0 300 C-1.88 236.48, -2.07 173.32, 0 0" stroke="#1e1e1e" stroke-width="2" fill="none"></path></g><g transform="translate(110 10) rotate(0 6.883333206176758 12.5)"><text x="0" y="0" font-family="Virgil, Segoe UI Emoji" font-size="20px" fill="#1e1e1e" text-anchor="start" style="white-space: pre;" direction="ltr" dominant-baseline="text-before-edge">0</text></g><g transform="translate(10 110) rotate(0 6.883333206176758 12.5)"><text x="0" y="0" font-family="Virgil, Segoe UI Emoji" font-size="20px" fill="#1e1e1e" text-anchor="start" style="white-space: pre;" direction="ltr" dominant-baseline="text-before-edge">0</text></g><g transform="translate(210 10) rotate(0 2.7083332538604736 12.5)"><text x="0" y="0" font-family="Virgil, Segoe UI Emoji" font-size="20px" fill="#1e1e1e" text-anchor="start" style="white-space: pre;" direction="ltr" dominant-baseline="text-before-edge">1</text></g><g transform="translate(10 210) rotate(0 2.7083332538604736 12.5)"><text x="0" y="0" font-family="Virgil, Segoe UI Emoji" font-size="20px" fill="#1e1e1e" text-anchor="start" style="white-space: pre;" direction="ltr" dominant-baseline="text-before-edge">1</text></g><g transform="translate(310 10) rotate(0 7.116666793823242 12.5)"><text x="0" y="0" font-family="Virgil, Segoe UI Emoji" font-size="20px" fill="#1e1e1e" text-anchor="start" style="white-space: pre;" direction="ltr" dominant-baseline="text-before-edge">2</text></g><g transform="translate(10 310) rotate(0 7.116666793823242 12.5)"><text x="0" y="0" font-family="Virgil, Segoe UI Emoji" font-size="20px" fill="#1e1e1e" text-anchor="start" style="white-space: pre;" direction="ltr" dominant-baseline="text-before-edge">2</text></g><g transform="translate(110 110) rotate(0 5.983333110809326 12.5)"><text x="0" y="0" font-family="Virgil, Segoe UI Emoji" font-size="20px" fill="#1e1e1e" text-anchor="start" style="white-space: pre;" direction="ltr" dominant-baseline="text-before-edge">X</text></g><g transform="translate(310 110) rotate(0 5.983333110809326 12.5)"><text x="0" y="0" font-family="Virgil, Segoe UI Emoji" font-size="20px" fill="#1e1e1e" text-anchor="start" style="white-space: pre;" direction="ltr" dominant-baseline="text-before-edge">X</text></g><g transform="translate(110 210) rotate(0 5.983333110809326 12.5)"><text x="0" y="0" font-family="Virgil, Segoe UI Emoji" font-size="20px" fill="#1e1e1e" text-anchor="start" style="white-space: pre;" direction="ltr" dominant-baseline="text-before-edge">X</text></g><g transform="translate(310 310) rotate(0 5.983333110809326 12.5)"><text x="0" y="0" font-family="Virgil, Segoe UI Emoji" font-size="20px" fill="#1e1e1e" text-anchor="start" style="white-space: pre;" direction="ltr" dominant-baseline="text-before-edge">X</text></g><g transform="translate(210 210) rotate(0 6.883333206176758 12.5)"><text x="0" y="0" font-family="Virgil, Segoe UI Emoji" font-size="20px" fill="#1e1e1e" text-anchor="start" style="white-space: pre;" direction="ltr" dominant-baseline="text-before-edge">0</text></g><g transform="translate(310 210) rotate(0 6.883333206176758 12.5)"><text x="0" y="0" font-family="Virgil, Segoe UI Emoji" font-size="20px" fill="#1e1e1e" text-anchor="start" style="white-space: pre;" direction="ltr" dominant-baseline="text-before-edge">0</text></g><g transform="translate(110 310) rotate(0 6.883333206176758 12.5)"><text x="0" y="0" font-family="Virgil, Segoe UI Emoji" font-size="20px" fill="#1e1e1e" text-anchor="start" style="white-space: pre;" direction="ltr" dominant-baseline="text-before-edge">0</text></g><g transform="translate(210 110) rotate(0 6.883333206176758 12.5)"><text x="0" y="0" font-family="Virgil, Segoe UI Emoji" font-size="20px" fill="#1e1e1e" text-anchor="start" style="white-space: pre;" direction="ltr" dominant-baseline="text-before-edge">0</text></g><g stroke-linecap="round"><g transform="translate(170 70) rotate(0 0 150)"><path d="M0.73 -1.18 C0.61 48.68, -0.78 248.75, -0.87 299.06 M-0.34 0.82 C-0.08 50.81, 1.41 250.45, 1.38 300.11" stroke="#1e1e1e" stroke-width="2" fill="none"></path></g></g><mask></mask><g stroke-linecap="round"><g transform="translate(270.91764704899686 70.61229245886207) rotate(0 0 150)"><path d="M0.98 -0.61 C0.95 49.24, 0.01 249.55, 0.03 299.6 M0.04 1.68 C-0.17 51.66, -1.05 251.07, -0.9 300.93" stroke="#1e1e1e" stroke-width="2" fill="none"></path></g></g><mask></mask><g stroke-linecap="round"><g transform="translate(70 170) rotate(0 150 0)"><path d="M0.8 0.14 C50.63 -0.04, 250 -0.94, 299.75 -0.78 M-0.24 -0.83 C49.35 -0.9, 248.33 0.32, 298.66 0.35" stroke="#1e1e1e" stroke-width="2" fill="none"></path></g></g><mask></mask><g stroke-linecap="round"><g transform="translate(69.96360022266396 270.086855468899) rotate(0 149.99999999999997 0)"><path d="M0.98 0.85 C50.94 0.8, 249.22 0.15, 299.09 -0.09 M0.04 0.25 C50.42 0.38, 251.41 1.37, 301.33 1.4" stroke="#1e1e1e" stroke-width="2" fill="none"></path></g></g><mask></mask></svg>