<svg version="1.1" xmlns="http://www.w3.org/2000/svg" viewBox="0 0 322.0221676152479 321.3547667194903" width="322.0221676152479" height="321.3547667194903">
  <!-- svg-source:excalidraw -->
  
  <defs>
    <style class="style-fonts">
      @font-face {
        font-family: "Virgil";
        src: url("https://excalidraw.com/Virgil.woff2");
      }
      @font-face {
        font-family: "Cascadia";
        src: url("https://excalidraw.com/Cascadia.woff2");
      }
      @font-face {
        font-family: "Assistant";
        src: url("https://excalidraw.com/Assistant-Regular.woff2");
      }
    </style>
    
  </defs>
  <rect x="0" y="0" width="322.0221676152479" height="321.3547667194903" fill="#ffffff"></rect><g stroke-linecap="round" transform="translate(10.39248156771066 10.38796907774173) rotate(0 150 150)"><path d="M0 0 C70 0.09, 142.74 0.78, 300 0 M0 0 C93.87 1.11, 188.31 1.18, 300 0 M300 0 C299.24 102.33, 300.1 208.01, 300 300 M300 0 C302.23 73.37, 302.59 146.08, 300 300 M300 300 C238.41 300.07, 177.35 301.25, 0 300 M300 300 C218.84 300.89, 137 301.15, 0 300 M0 300 C-0.07 215.59, 0.86 130.45, 0 0 M0 300 C1.67 235.44, 2.62 172.33, 0 0" stroke="#1e1e1e" stroke-width="2" fill="none"></path></g><g transform="translate(50.39248156771066 50.38796907774173) rotate(0 6.879997253417969 12.5)"><text x="0" y="0" font-family="Virgil, Segoe UI Emoji" font-size="20px" fill="#1e1e1e" text-anchor="start" style="white-space: pre;" direction="ltr" dominant-baseline="text-before-edge">0</text></g><g transform="translate(150.39248156771066 50.38796907774173) rotate(0 2.7099990844726562 12.5)"><text x="0" y="0" font-family="Virgil, Segoe UI Emoji" font-size="20px" fill="#1e1e1e" text-anchor="start" style="white-space: pre;" direction="ltr" dominant-baseline="text-before-edge">1</text></g><g transform="translate(250.39248156771066 50.38796907774173) rotate(0 7.1199951171875 12.5)"><text x="0" y="0" font-family="Virgil, Segoe UI Emoji" font-size="20px" fill="#1e1e1e" text-anchor="start" style="white-space: pre;" direction="ltr" dominant-baseline="text-before-edge">2</text></g><g transform="translate(50.39248156771066 150.38796907774173) rotate(0 6.80999755859375 12.5)"><text x="0" y="0" font-family="Virgil, Segoe UI Emoji" font-size="20px" fill="#1e1e1e" text-anchor="start" style="white-space: pre;" direction="ltr" dominant-baseline="text-before-edge">3</text></g><g transform="translate(50.39248156771066 250.38796907774173) rotate(0 6.399993896484375 12.5)"><text x="0" y="0" font-family="Virgil, Segoe UI Emoji" font-size="20px" fill="#1e1e1e" text-anchor="start" style="white-space: pre;" direction="ltr" dominant-baseline="text-before-edge">6</text></g><g transform="translate(150.39248156771066 150.38796907774173) rotate(0 6.399993896484375 12.5)"><text x="0" y="0" font-family="Virgil, Segoe UI Emoji" font-size="20px" fill="#1e1e1e" text-anchor="start" style="white-space: pre;" direction="ltr" dominant-baseline="text-before-edge">4</text></g><g transform="translate(150.39248156771066 250.38796907774173) rotate(0 5.379997253417969 12.5)"><text x="0" y="0" font-family="Virgil, Segoe UI Emoji" font-size="20px" fill="#1e1e1e" text-anchor="start" style="white-space: pre;" direction="ltr" dominant-baseline="text-before-edge">7</text></g><g transform="translate(250.39248156771066 150.38796907774173) rotate(0 6.17999267578125 12.5)"><text x="0" y="0" font-family="Virgil, Segoe UI Emoji" font-size="20px" fill="#1e1e1e" text-anchor="start" style="white-space: pre;" direction="ltr" dominant-baseline="text-before-edge">5</text></g><g transform="translate(250.39248156771066 250.38796907774173) rotate(0 7.649993896484375 12.5)"><text x="0" y="0" font-family="Virgil, Segoe UI Emoji" font-size="20px" fill="#1e1e1e" text-anchor="start" style="white-space: pre;" direction="ltr" dominant-baseline="text-before-edge">8</text></g><g stroke-linecap="round"><g transform="translate(110.39248156771066 10.38796907774173) rotate(0 0 150)"><path d="M-1.07 0.43 C-0.82 50.16, 0.74 249.19, 0.99 299.07 M0.57 -0.39 C0.79 49.4, 0.68 249.91, 0.56 300.12" stroke="#1e1e1e" stroke-width="2" fill="none"></path></g></g><mask></mask><g stroke-linecap="round"><g transform="translate(211.16801816225063 10.925947896009319) rotate(0 0 150)"><path d="M-0.33 -0.54 C-0.36 49.16, -0.76 249.14, -0.78 299.27 M1.7 1.79 C2.11 52.15, 2.05 250.45, 1.53 300.43" stroke="#1e1e1e" stroke-width="2" fill="none"></path></g></g><mask></mask><g stroke-linecap="round"><g transform="translate(10.39248156771066 110.38796907774173) rotate(0 150 0)"><path d="M-0.29 0.65 C49.81 0.41, 251.06 -0.24, 300.95 -0.28 M1.76 -0.06 C51.75 0.39, 250.55 1.38, 300.5 1.11" stroke="#1e1e1e" stroke-width="2" fill="none"></path></g></g><mask></mask><g stroke-linecap="round"><g transform="translate(10.39248156771066 210.38796907774173) rotate(0 150 0)"><path d="M-0.39 0.12 C49.66 0.28, 249.12 0.42, 299.29 0.43 M1.6 -0.86 C52.13 -1.02, 251.86 -1.87, 301.63 -1.46" stroke="#1e1e1e" stroke-width="2" fill="none"></path></g></g><mask></mask></svg>