<svg version="1.1" xmlns="http://www.w3.org/2000/svg" viewBox="0 0 321.48676485570144 411.0796110488474" width="321.48676485570144" height="411.0796110488474">
  <!-- svg-source:excalidraw -->
  
  <defs>
    <style class="style-fonts">
      @font-face {
        font-family: "Virgil";
        src: url("https://excalidraw.com/Virgil.woff2");
      }
      @font-face {
        font-family: "Cascadia";
        src: url("https://excalidraw.com/Cascadia.woff2");
      }
      @font-face {
        font-family: "Assistant";
        src: url("https://excalidraw.com/Assistant-Regular.woff2");
      }
    </style>
    
  </defs>
  <rect x="0" y="0" width="321.48676485570144" height="411.0796110488474" fill="#ffffff"></rect><g stroke-linecap="round" transform="translate(10.26391001724636 11.079611048847426) rotate(0 150 150)"><path d="M0 0 C108.73 -2.55, 218.37 -3.04, 300 0 M0 0 C94.99 -2.57, 189.07 -1.41, 300 0 M300 0 C301.36 62.36, 301.95 126.06, 300 300 M300 0 C299.75 106.58, 299.54 213.59, 300 300 M300 300 C185.91 299.73, 74.78 297.93, 0 300 M300 300 C229.54 298.69, 157.28 298.5, 0 300 M0 300 C-1.52 227.71, -0.13 155.75, 0 0 M0 300 C-1.88 236.48, -2.07 173.32, 0 0" stroke="#1e1e1e" stroke-width="2" fill="none"></path></g><g transform="translate(50.26391001724636 51.079611048847426) rotate(0 5.9799957275390625 12.5)"><text x="0" y="0" font-family="Virgil, Segoe UI Emoji" font-size="20px" fill="#1e1e1e" text-anchor="start" style="white-space: pre;" direction="ltr" dominant-baseline="text-before-edge">X</text></g><g transform="translate(150.26391001724636 151.07961104884743) rotate(0 5.9799957275390625 12.5)"><text x="0" y="0" font-family="Virgil, Segoe UI Emoji" font-size="20px" fill="#1e1e1e" text-anchor="start" style="white-space: pre;" direction="ltr" dominant-baseline="text-before-edge">X</text></g><g transform="translate(150.26391001724636 251.07961104884743) rotate(0 7.258333206176758 12.5)"><text x="0" y="0" font-family="Virgil, Segoe UI Emoji" font-size="20px" fill="#1e1e1e" text-anchor="start" style="white-space: pre;" direction="ltr" dominant-baseline="text-before-edge">O</text></g><g transform="translate(10.26391001724636 351.0796110488474) rotate(0 119.36666870117188 25)"><text x="0" y="0" font-family="Virgil, Segoe UI Emoji" font-size="20px" fill="#1e1e1e" text-anchor="start" style="white-space: pre;" direction="ltr" dominant-baseline="text-before-edge">board: [ X, , , ,X, , ,O, ]</text><text x="0" y="25" font-family="Virgil, Segoe UI Emoji" font-size="20px" fill="#1e1e1e" text-anchor="start" style="white-space: pre;" direction="ltr" dominant-baseline="text-before-edge">step: 3</text></g><g stroke-linecap="round"><g transform="translate(110.26391001724636 11.079611048847426) rotate(0 0 150)"><path d="M0.69 -1.08 C0.58 48.93, -0.14 249.4, -0.3 299.49 M-0.41 0.97 C-0.73 51.19, -1.27 250.84, -1.41 300.77" stroke="#1e1e1e" stroke-width="2" fill="none"></path></g></g><mask></mask><g stroke-linecap="round"><g transform="translate(211.14174363174476 12.566450491612756) rotate(0 0 150)"><path d="M1.12 -0.29 C1.05 49.91, -0.54 250.44, -0.88 300.49 M0.25 -1.49 C0.6 48.41, 1.16 248.16, 1.37 298.63" stroke="#1e1e1e" stroke-width="2" fill="none"></path></g></g><mask></mask><g stroke-linecap="round"><g transform="translate(10.26391001724636 111.07961104884743) rotate(0 150 0)"><path d="M0.78 -0.89 C51.09 -1.15, 250.73 -1.16, 300.74 -0.88 M-0.26 1.26 C50.04 1.07, 250.05 0.59, 300.18 0.19" stroke="#1e1e1e" stroke-width="2" fill="none"></path></g></g><mask></mask><g stroke-linecap="round"><g transform="translate(10.500624208915951 212.59956529892048) rotate(0 149.99999999999997 0)"><path d="M0.8 0.74 C51.07 0.91, 251.18 0.68, 300.99 0.4 M-0.24 0.09 C50.01 -0.07, 250.74 -1.48, 300.56 -1.52" stroke="#1e1e1e" stroke-width="2" fill="none"></path></g></g><mask></mask></svg>